<?xml version="1.0" encoding="utf-8"?>
<!-- Generator: Adobe Illustrator 21.1.0, SVG Export Plug-In . SVG Version: 6.00 Build 0)  -->
<svg version="1.1" id="Слой_1" xmlns="http://www.w3.org/2000/svg" xmlns:xlink="http://www.w3.org/1999/xlink" x="0px" y="0px"
	 viewBox="0 0 533.5 175" style="enable-background:new 0 0 533.5 175;" xml:space="preserve">
<style type="text/css">
	.st0{fill:#FFFFFF;}
	.st1{fill:url(#SVGID_1_);}
</style>
<g>
	<g>
		<path class="st0" d="M246.7,33.9h-15.8v33h15.8c10.9,0,19.2-6.3,19.2-16.6C265.9,40.1,257.6,33.9,246.7,33.9z M246.7,59.5h-6.7
			v-18h6.7c5.7,0,9.9,3.2,9.9,8.9C256.6,56.2,252.4,59.5,246.7,59.5z"/>
		<path class="st0" d="M290.1,33c-11.1,0-19.3,6.7-19.3,17.3c0,10.6,8.2,17.3,19.3,17.3c11.1,0,19.3-6.8,19.3-17.3
			C309.4,39.7,301.1,33,290.1,33z M290.1,59.6c-6,0-10-3.5-10-9.3c0-5.8,4-9.3,10-9.3s10,3.5,10,9.3
			C300.1,56.1,296.1,59.6,290.1,59.6z"/>
		<polygon class="st0" points="344.5,56.3 343.9,56.3 329.3,33.9 316.3,33.9 316.3,67 325.5,67 325.5,44.7 326.1,44.7 340.7,67 
			353.6,67 353.6,33.9 344.5,33.9 		"/>
		<path class="st0" d="M372.7,33.9l-14,31.2V67h9.2l2.3-5.4h15.9l2.3,5.4h9.5v-1.9l-14.3-31.2H372.7z M373.4,54.1l4.3-10.2h0.8
			l4.4,10.2H373.4z"/>
		<polygon class="st0" points="396,41.5 407.8,41.5 407.8,67 417,67 417,41.5 428.8,41.5 428.8,33.9 396,33.9 		"/>
		<rect x="434.3" y="33.9" class="st0" width="9.1" height="33"/>
		<path class="st0" d="M469.9,33c-11.1,0-19.3,6.7-19.3,17.3c0,10.6,8.2,17.3,19.3,17.3c11.1,0,19.3-6.8,19.3-17.3
			C489.2,39.7,481,33,469.9,33z M469.9,59.6c-6,0-10-3.5-10-9.3c0-5.8,4-9.3,10-9.3s10,3.5,10,9.3C479.9,56.1,475.9,59.6,469.9,59.6
			z"/>
		<polygon class="st0" points="524.3,33.9 524.3,56.3 523.7,56.3 509.2,33.9 496.2,33.9 496.2,67 505.3,67 505.3,44.7 505.9,44.7 
			520.5,67 533.4,67 533.4,33.9 		"/>
	</g>
	<g>
		<path class="st0" d="M248.7,112.5c-3.5-0.7-7.1-1.6-7.1-3.5c0-1.9,2.6-3,6.2-3c3.2,0,6.5,1.4,7.6,3.7H266v-2.4
			c-2.8-5.9-9.5-10.2-18.1-10.2c-9,0-16.6,5.1-16.6,12.2c0,8.5,10.4,10.5,17.4,11.7c3.8,0.7,7.2,1.5,7.2,3.4c0,2.1-3,3-6.7,3
			c-3.8,0-7-1.4-8.2-3.7h-10.7v2.4c3,6.6,10.1,10.2,18.6,10.2c9.8,0,17.3-4.6,17.3-12.1C266.2,115.9,255.8,113.9,248.7,112.5z"/>
		<path class="st0" d="M301.3,118.7c0,5.4-2.8,8.1-8.7,8.3c-5.9-0.2-8.7-2.9-8.7-8.3V98.3h-10.3v19.7c0,12.2,7,18.2,19,18.2
			c12.1,0,19-6,19-18.2V98.3h-10.3V118.7z"/>
		<path class="st0" d="M342.5,98.3h-21.3v37.2h10.3v-11.8h11c8.1,0,14.1-5,14.1-12.7S350.6,98.3,342.5,98.3z M342.5,114.5h-11v-7.3
			h11c2.3,0,3.8,1.3,3.8,3.6C346.3,113.2,344.8,114.5,342.5,114.5z"/>
		<path class="st0" d="M384.9,98.3h-21.3v37.2h10.3v-11.8h11c8.1,0,14.1-5,14.1-12.7S393,98.3,384.9,98.3z M384.9,114.5h-11v-7.3h11
			c2.3,0,3.8,1.3,3.8,3.6C388.7,113.2,387.2,114.5,384.9,114.5z"/>
		<path class="st0" d="M425.3,97.2c-12.5,0-21.8,7.5-21.8,19.4c0,11.9,9.2,19.5,21.8,19.5c12.5,0,21.8-7.6,21.8-19.5
			C447.1,104.7,437.8,97.2,425.3,97.2z M425.3,127.1c-6.8,0-11.3-3.9-11.3-10.5c0-6.5,4.5-10.4,11.3-10.4c6.8,0,11.3,3.9,11.3,10.4
			C436.6,123.2,432.1,127.1,425.3,127.1z"/>
		<path class="st0" d="M483.4,120.6c4.8-1.7,8.1-5.5,8.1-10.7c0-7.1-6-11.6-14.1-11.6h-22.4v37.2h10.3v-12.9h7l9.5,12.9H493v-2.1
			l-9.6-12.4V120.6z M477.4,113.5h-12.1v-6.2h12.1c2.3,0,3.8,1.1,3.8,3.1C481.2,112.4,479.7,113.5,477.4,113.5z"/>
		<polygon class="st0" points="496.6,98.3 496.6,106.7 509.9,106.7 509.9,135.4 520.2,135.4 520.2,106.7 533.5,106.7 533.5,98.3 		
			"/>
	</g>
	<g>
		<linearGradient id="SVGID_1_" gradientUnits="userSpaceOnUse" x1="0" y1="87.5105" x2="175.0209" y2="87.5105">
			<stop  offset="0" style="stop-color:#9E1EDB"/>
			<stop  offset="1" style="stop-color:#2877E2"/>
		</linearGradient>
		<path class="st1" d="M25.6,149.4c-34.1-34.1-34.1-89.7,0-123.8s89.7-34.1,123.8,0s34.1,89.7,0,123.8S59.7,183.6,25.6,149.4z"/>
		<path class="st0" d="M125.3,119.9c0,0,0-0.1,0-0.2c-0.2-2.3-0.8-4.6-1.7-6.7c-3.2-7-10.3-11.6-17.9-11.6H71.5
			c-2.5,0-4.6-2-4.6-4.6c0-2.5,2-4.6,4.6-4.6h49.6c0.9,0,1.7-0.4,2.1-1.2c0.5-0.7,0.5-1.6,0.2-2.4c-1.1-2.4-2.7-4.5-4.5-6.2
			c3.9-4.8,6.2-10.9,6.2-17.3v-5c0-14.1-11.5-25.6-25.6-25.6H55.8v0h-3.5c0,0,0,0,0,0h0c0,0,0,0,0,0c-0.3,0-0.5,0.3-0.5,0.6v62.3
			h0.1c0.1,2.6,0.7,5.1,1.8,7.5c3.2,7,10.3,11.6,17.9,11.6h34.1c2.5,0,4.6,2,4.6,4.6c0,2.5-2,4.6-4.6,4.6H56c-0.9,0-1.7,0.4-2.1,1.2
			c-0.5,0.7-0.5,1.7-0.1,2.4c3.3,6.9,10.4,11.4,18,11.4h33.5c11,0,20-9,20-20L125.3,119.9z M65.8,48.5h33.7
			c6.5,0,11.8,5.3,11.8,11.8v5c0,6.5-5.3,11.8-11.8,11.8H65.8V48.5z"/>
	</g>
</g>
</svg>
